<?xml version="1.0" encoding="UTF-8"?>
<!DOCTYPE svg PUBLIC "-//W3C//DTD SVG 1.1//EN" "http://www.w3.org/Graphics/SVG/1.1/DTD/svg11.dtd">
<!-- Creator: CorelDRAW 2020 (64-Bit) -->
<svg xmlns="http://www.w3.org/2000/svg" xml:space="preserve" width="9.0121mm" height="6.0479mm" version="1.1" style="shape-rendering:geometricPrecision; text-rendering:geometricPrecision; image-rendering:optimizeQuality; fill-rule:evenodd; clip-rule:evenodd"
viewBox="0 0 260.89 175.08"
 xmlns:xlink="http://www.w3.org/1999/xlink"
 xmlns:xodm="http://www.corel.com/coreldraw/odm/2003">
 <defs>
  <style type="text/css">
   <![CDATA[
    .fil0 {fill:#302F34}
   ]]>
  </style>
 </defs>
 <g id="Layer_x0020_1">
  <metadata id="CorelCorpID_0Corel-Layer"/>
  <path class="fil0" d="M180.59 129.78c-9.94,5.56 -91.81,5.04 -100.24,-0.1 -3.3,-15.31 5.89,-11.23 20.99,-11.23l58.52 0c15.01,0 23.95,-4.12 20.73,11.32zm-15.83 -35.32c12.43,0 17.84,-2.41 15.94,11.5 -9.08,4.54 -91.53,4.56 -100.44,-0.07 -2.04,-13.77 3.62,-11.43 15.88,-11.43l68.63 0zm54.75 -12.34c24.77,-8.18 32.7,30.31 10.39,36.32 -25.61,6.91 -35.38,-28.07 -10.39,-36.32zm-187.86 0.74c25.5,-7.58 31.87,27.58 13.71,34.72 -17.78,6.99 -32.85,-8.46 -26.14,-26.01 3.58,-9.37 4.5,-6.34 12.43,-8.7zm6.02 -32.18c1.68,-8.44 -1.21,-3.11 6.4,-10.33l27.98 -23.55c15.27,-9 102.22,-11.55 121.04,3.09l29.28 28.98c-4.35,4.52 -3.93,3.29 -20.76,3.12l-71.16 0.1c-16.49,0 -82.09,1.88 -92.78,-1.41zm-21.34 5.95c-18.01,17.37 -14.14,21.07 -14.83,51.35 -0.44,19.17 -3.44,45.6 0.57,63.73 9.72,3.38 22.07,3.57 32.96,3.27 19.44,-0.53 10.54,-5.72 14.54,-21.2l161.77 0.01c4,15.51 -4.82,20.68 14.53,21.19 10.85,0.29 23.22,0.14 32.98,-3.26 3.98,-18.2 1.03,-44.54 0.59,-63.76 -0.7,-30.25 3.22,-34.07 -14.88,-51.37 9.35,-10.18 12.92,-24.37 -10.49,-20.25 -15.57,2.74 -19.51,-6.18 -29.16,-15.99 -22.94,-23.34 -32.96,-20.2 -74.46,-20.19 -41.48,0 -51.45,-3.26 -74.46,20.19 -7.57,7.72 -13.89,18.7 -27.05,16.54 -10.14,-1.67 -15.2,-6.79 -18.59,4.43 -2.69,8.91 2.89,11.78 5.99,15.31z"/>
 </g>
</svg>
