<svg xmlns="http://www.w3.org/2000/svg" width="25" height="25" viewBox="0 0 25 25">
    <defs>
        <linearGradient id="7hxrun310a" x2="1" y1=".5" y2=".5" gradientUnits="objectBoundingBox">
            <stop offset="0" stop-color="#1c7fab"/>
            <stop offset="1" stop-color="#1caba2"/>
        </linearGradient>
    </defs>
    <path fill="#fff" d="M0 0H25V25H0z" opacity="0.001"/>
    <g>
        <path d="M24.312 2.579h-1.787L17.5 7.6V6.363h-1.3a2.976 2.976 0 0 0-2.119.878l-.406.406a2.11 2.11 0 0 1-2.2.474L6.211 6.135a2.321 2.321 0 0 0-.824-.151h-.094A2.335 2.335 0 0 0 3.642 9.97l.262.263a1.522 1.522 0 0 0-.971 1.383 1.539 1.539 0 0 0 .449 1.121l4.3 4.3-.861.861L3.3 14.379a1.519 1.519 0 0 0-1.08-.449 1.532 1.532 0 0 0-1.084 2.615l4.45 4.449a2.286 2.286 0 0 0 3.234 0l1.41-1.409.873.873a1.519 1.519 0 0 0 1.083.449 1.536 1.536 0 0 0 1.419-.973l1.817 1.817a2.289 2.289 0 0 0 3.236 0l3.47-3.471a2.271 2.271 0 0 0 .671-1.618v-1.975h-.861l2.374-2.374zM9.577 18.932l-1.408 1.409a1.4 1.4 0 0 1-1.932 0l-4.448-4.449a.6.6 0 0 1-.178-.43.609.609 0 0 1 1.039-.43l4.115 4.114.058.059 1.513-1.513zm5.155-11.038a2.087 2.087 0 0 1 1.468-.607h.38v1.555l.545.926h-3.49a1.045 1.045 0 0 1-.957-.629 2.958 2.958 0 0 0 1.648-.839zm2.887.9L22.906 3.5h.484v8.43l-2.471 2.47zm2.917 6.779l.023.041h1.317v1.052a1.36 1.36 0 0 1-.4.965l-3.112 3.112L4.681 7.054a1.364 1.364 0 0 1 .612-.146h.094a1.413 1.413 0 0 1 .5.091l5.262 1.986a2.941 2.941 0 0 0 .561.148 1.969 1.969 0 0 0 1.926 1.558h4.031zm-2.877 5.77a1.412 1.412 0 0 1-1.584-.242L4.294 9.317a1.4 1.4 0 0 1-.413-1 1.37 1.37 0 0 1 .146-.612z"/>
        <path fill="url(#7hxrun310a)" d="M12.8 19.375a.609.609 0 0 1-1.039.431l-7.727-7.722a.608.608 0 1 1 .861-.86l7.722 7.722a.6.6 0 0 1 .183.429z"/>
    </g>
</svg>
