<svg xmlns="http://www.w3.org/2000/svg" id="Group_3835" width="40" height="40" data-name="Group 3835" viewBox="0 0 40 40">
    <defs>
        <style>
            .cls-3{fill:#fff}.cls-2{fill:none;stroke:#fff;stroke-miterlimit:10}
        </style>
    </defs>
    <g id="Ellipse_211" class="cls-2" data-name="Ellipse 211" transform="translate(2 2)">
        <circle cx="18" cy="18" r="18"/>
        <circle cx="18" cy="18" r="17.5" fill="none"/>
    </g>
    <g id="Group_3834" data-name="Group 3834">
        <path id="Path_3710" d="M28.923 25.7l-2.413-.879a.429.429 0 0 0-.548.257l-.147.4-2.8-1.02a.422.422 0 0 0-.22-.019l-5.816 1.027a1.717 1.717 0 0 0-1.226.9l-2.664-.966a1.692 1.692 0 0 0-1.308.058 1.715 1.715 0 0 0-.972 1.3 1.751 1.751 0 0 0 1.168 1.88l8.79 3.2a.428.428 0 0 0 .146.026.424.424 0 0 0 .137-.023l2.455-.828.261.095-.146.4a.427.427 0 0 0 .256.548l2.414.879a.427.427 0 0 0 .548-.256l2.343-6.436a.428.428 0 0 0-.258-.543zm-5.55 4.455l-2.455.828-8.648-3.148a.905.905 0 0 1-.615-.945.858.858 0 0 1 1.145-.69l2.777 1.011a1.863 1.863 0 0 0 .02.236 1.72 1.72 0 0 0 1.982 1.389l4.819-.85-.149-.843-4.821.857a.863.863 0 0 1-.992-.692.791.791 0 0 1 0-.3c0-.014.005-.028.007-.043a.439.439 0 0 1 .029-.106.859.859 0 0 1 .657-.551l5.7-1.006 2.688.978-1.464 4.023-.4-.146a.429.429 0 0 0-.28-.002zm2.805 1.832l-1.609-.587 2.05-5.631 1.609.585z" class="cls-3" data-name="Path 3710"/>
        <path id="Path_3711" d="M20.81 13.942a3.357 3.357 0 0 0 .744 1.361.923.923 0 0 0-.013.1v2.331a1.284 1.284 0 0 0 1.284 1.284V23.3a.428.428 0 0 0 .237.386l.856.428a.428.428 0 0 0 .382 0l.857-.428a.429.429 0 0 0 .236-.386v-4.28a1.284 1.284 0 0 0 1.284-1.284v-2.329a.842.842 0 0 0-.014-.111 3.308 3.308 0 0 0 .656-1.08 1.565 1.565 0 0 0 1.6-.732 1.69 1.69 0 0 0-.269-2.087l-3.486-3.482a2.978 2.978 0 0 0-2.119-.878h-4.5a.426.426 0 0 0-.169.035l-2.913 1.249h-.342v-.856a.428.428 0 0 0-.428-.428h-3.425a.428.428 0 0 0-.428.428v6.849a.428.428 0 0 0 .428.428h3.425a.428.428 0 0 0 .428-.428v-.856h.062a3.067 3.067 0 0 0 2.934 1.712 3.417 3.417 0 0 0 2.693-1.228zm-6.545-.056H11.7V7.893h2.569zm10.272 9.152l-.428.214-.428-.214v-4.016h.856zm1.284-5.3a.428.428 0 0 1-.428.428h-2.568a.428.428 0 0 1-.428-.428v-1.747a3.381 3.381 0 0 0 .923.368.862.862 0 1 0 .12-.86 2.562 2.562 0 0 1-.685-.293 3.371 3.371 0 0 1 1.354-.464 4 4 0 0 1 1.712.665zm.319-3.138a4.661 4.661 0 0 0-2.031-.716 4.659 4.659 0 0 0-2.027.714 2.5 2.5 0 0 1-.5-1.142h2.1a1.672 1.672 0 0 0 1.5-.9l1.2 1.2a1.506 1.506 0 0 0 .152.125 2.461 2.461 0 0 1-.394.719zm-.767-3.054a1.693 1.693 0 0 0-.424-.941 2.567 2.567 0 0 1 1.719 2.237zm-5.116 1.484c0 .648-1.06 1.284-2.14 1.284s-2.14-.636-2.14-1.284a.428.428 0 0 0-.428-.428h-.428V9.178h.428a.421.421 0 0 0 .168-.035l2.913-1.25h4.413a2.128 2.128 0 0 1 1.516.627L28.041 12a.828.828 0 0 1 .153 1.019.772.772 0 0 1-.661.359h-.02a3.177 3.177 0 0 0 .02-.351 3.428 3.428 0 0 0-3.424-3.424 3.378 3.378 0 0 0-1.643.428h-3.493v.856h4.708a.856.856 0 1 1 0 1.712h-3a.428.428 0 0 0-.424.431z" class="cls-3" data-name="Path 3711"/>
    </g>
    <path id="Line_176" d="M25.483 0L0 25.161" class="cls-2" data-name="Line 176" transform="translate(7.211 7.502)"/>
</svg>
