<svg xmlns="http://www.w3.org/2000/svg" id="Group_3833" width="40" height="40" data-name="Group 3833" viewBox="0 0 40 40">
    <defs>
        <style>
            .cls-2{fill:#fff}
        </style>
    </defs>
    <g id="OMVHSS">
        <g id="Group_3144" data-name="Group 3144">
            <path id="Path_767" d="M25.544 12.069v1.709H26.7a2.279 2.279 0 0 1 2.585 2.089q1.333 6.522 2.638 13.051c.066.328.2.4.5.39.433-.022.869-.014 1.3-.007a1.6 1.6 0 0 1 1.577 2.252c-.318.927-.647 1.849-.98 2.771a2.729 2.729 0 0 1-2.72 1.921c-1.57.015-3.14.007-4.711.007H14.524a2.807 2.807 0 0 1-3.058-2.152c-.3-.858-.611-1.714-.9-2.576a1.588 1.588 0 0 1 1.564-2.214c.559-.008 1.12 0 1.726 0l1.255-6.194c-.157.164-.242.246-.318.336Q10.518 28.484 6.25 33.52a1.63 1.63 0 0 1-1.891.643 1.591 1.591 0 0 1-.666-2.577c1.149-1.378 2.319-2.739 3.479-4.108l5.956-7.025c.08-.095.157-.194.244-.3a2.5 2.5 0 0 1 .283-3.523c-.173-.15-.331-.282-.481-.418A1.421 1.421 0 0 1 15 14.024c.551.431 1.081.888 1.659 1.366.052-.1.093-.182.131-.262a2.2 2.2 0 0 1 2.1-1.344c.462-.006.924 0 1.42 0v-1.708c-.468 0-.953.009-1.436 0a1.737 1.737 0 0 1-1.774-1.522 1.992 1.992 0 0 1 .06-.7q.389-1.569.811-3.129a2 2 0 0 1 2.007-1.536q2.965-.009 5.931 0a2 2 0 0 1 2 1.548q.423 1.563.812 3.131a1.724 1.724 0 0 1-1.694 2.212c-.48.001-.956-.011-1.483-.011zm-2.609 23.044h8.535a1.684 1.684 0 0 0 1.805-1.267c.295-.831.583-1.664.874-2.5.246-.7.1-.909-.663-.909H12.3c-.649 0-.819.236-.611.832q.43 1.228.866 2.454a1.749 1.749 0 0 0 1.975 1.387zm3.484-5.839l-1.392-14.317h-4.184c-.113 1.145-.231 2.271-.327 3.4a.549.549 0 0 0 .178.378c.3.281.627.518.923.8a1.412 1.412 0 0 1-.66 2.424 4.123 4.123 0 0 1-.8.009l-.7 7.311zM22.934 10.91h3.949c.62 0 .841-.282.691-.876q-.37-1.464-.756-2.923a.885.885 0 0 0-.98-.775h-.006q-2.9-.01-5.8 0a.876.876 0 0 0-.982.754v.027Q18.669 8.553 18.3 10c-.167.65.04.915.723.915h3.907zm3.247 4.038c.467 4.8.93 9.555 1.4 14.33h3.247c-.034-.191-.059-.352-.092-.515q-.871-4.278-1.736-8.554c-.288-1.427-.57-2.853-.863-4.278a1.085 1.085 0 0 0-.9-.976 10.216 10.216 0 0 0-1.05-.007zm-9.765 7.51l-1.381 6.809h3.258l.729-7.515a2.736 2.736 0 0 1-2.606.706zM14.264 20.9c-.078.085-.117.124-.153.167l-7.044 8.304c-.816.962-1.639 1.918-2.438 2.894a.844.844 0 0 0-.141.563c.01.1.24.275.33.253a1.087 1.087 0 0 0 .547-.316q3.753-4.4 7.487-8.81c.7-.822 1.391-1.645 2.1-2.48zm4.11-.371l-3.8-3.16c-.882.88-.862 1.567.035 2.319.493.413.985.822 1.482 1.234.892.746 1.6.635 2.284-.393zm2.415.431c.042-.1.13-.216.114-.31a.657.657 0 0 0-.189-.38q-3.126-2.62-6.265-5.221c-.161-.133-.344-.324-.536-.086s.025.379.188.515l6.238 5.19a4.75 4.75 0 0 0 .45.29zm3.549-7.2v-1.668h-2.8v1.665zm-4.654 1.181h-.758a1.111 1.111 0 0 0-1.2 1.015v.055c-.009.09-.019.226.032.271.527.461 1.067.906 1.663 1.408z" class="cls-2" data-name="Path 767"/>
            <path id="Path_768" d="M34.959 11.508A1.733 1.733 0 0 1 35 8.043 1.755 1.755 0 0 1 36.72 9.8a1.729 1.729 0 0 1-1.755 1.7zm.015-1.14a.592.592 0 0 0 .588-.581.57.57 0 0 0-.562-.581.061.061 0 0 0-.019 0 .581.581 0 0 0-.593.57.6.6 0 0 0 .586.592z" class="cls-2" data-name="Path 768"/>
            <path id="Path_769" d="M7.7 7.946a2.7 2.7 0 0 1-.005.5c-.055.3-.265.512-.554.451a.774.774 0 0 1-.529-.417 2.289 2.289 0 0 1 0-1.073.768.768 0 0 1 .529-.423.493.493 0 0 1 .55.428v.03a2.816 2.816 0 0 1 .009.504z" class="cls-2" data-name="Path 769"/>
            <path id="Path_770" d="M7.706 4.719a2.826 2.826 0 0 1 0 .46.542.542 0 0 1-.542.493.51.51 0 0 1-.567-.446V5.22a4.412 4.412 0 0 1-.018-.961.525.525 0 0 1 .519-.53.532.532 0 0 1 .069 0 .541.541 0 0 1 .55.531v.04c.01.141 0 .282 0 .423z" class="cls-2" data-name="Path 770"/>
            <path id="Path_771" d="M8.756 6.895a3.994 3.994 0 0 1-.5-.026.51.51 0 0 1-.456-.557.5.5 0 0 1 .46-.541h.014a5.9 5.9 0 0 1 .921-.009.517.517 0 0 1 .542.49.677.677 0 0 1 0 .078.525.525 0 0 1-.495.554.321.321 0 0 1-.062 0c-.141.009-.282 0-.418 0z" class="cls-2" data-name="Path 771"/>
            <path id="Path_772" d="M5.524 6.9a3.783 3.783 0 0 1-.542-.033.557.557 0 0 1 .059-1.1 7.061 7.061 0 0 1 .92 0 .559.559 0 0 1 .024 1.113 3.939 3.939 0 0 1-.461 0z" class="cls-2" data-name="Path 772"/>
            <path id="Path_773" d="M34.462 5.456a.616.616 0 1 1-.622-.609.634.634 0 0 1 .622.609z" class="cls-2" data-name="Path 773"/>
            <path id="Path_774" d="M9.181 14.636a.607.607 0 1 1-.62-.6.618.618 0 0 1 .62.6z" class="cls-2" data-name="Path 774"/>
        </g>
    </g>
</svg>
