<svg xmlns="http://www.w3.org/2000/svg" width="46" height="46" viewBox="0 0 46 46">
    <defs>
        <style>
            .cls-2{fill:#fff}
        </style>
    </defs>
    <g id="Group_3845" data-name="Group 3845" transform="translate(-.5 -.5)">
        <g id="Group_3844" data-name="Group 3844" transform="translate(2.503 12.813)">
            <path id="Path_3712" d="M40.961 11.037a4.127 4.127 0 0 0-4.7 2.08l-.9 1.68-.361-.011a19.373 19.373 0 0 1-6.934-1.533 12.868 12.868 0 0 0-9.87 0 19.373 19.373 0 0 1-6.934 1.533l-.364.011-.9-1.68A4.119 4.119 0 0 0 6.346 10.9a4.343 4.343 0 0 0-1.053.132 4.124 4.124 0 0 0-3.163 4.059v5.915a6.22 6.22 0 0 0 6.213 6.212h4.34l.176.214a13.282 13.282 0 0 0 10.267 4.846 13.28 13.28 0 0 0 10.265-4.846l.176-.213h4.342a6.22 6.22 0 0 0 6.212-6.213v-5.915a4.124 4.124 0 0 0-3.16-4.054zM8.343 25.865a4.864 4.864 0 0 1-4.859-4.859v-5.915a2.763 2.763 0 0 1 2.138-2.741A2.76 2.76 0 0 1 8.8 13.757l1.009 1.885v3.322a13.138 13.138 0 0 0 1.455 6.046l.437.855zm14.784 5.059a11.975 11.975 0 0 1-11.961-11.961v-2.812l.557-.028a20.79 20.79 0 0 0 6.992-1.623 11.517 11.517 0 0 1 8.824 0 20.79 20.79 0 0 0 6.992 1.621l.557.028v2.812a11.975 11.975 0 0 1-11.961 11.963zm19.642-9.918a4.863 4.863 0 0 1-4.857 4.859h-3.36l.437-.855a13.138 13.138 0 0 0 1.455-6.046v-3.323l1.009-1.885a2.826 2.826 0 0 1 5.317 1.335z" class="cls-2" data-name="Path 3712" transform="translate(-2.13 -10.905)"/>
            <path id="Rectangle_3867" d="M0 0H9.279V1.355H0z" class="cls-2" data-name="Rectangle 3867" transform="translate(16.357 8.16)"/>
            <path id="Rectangle_3868" d="M0 0H9.279V1.355H0z" class="cls-2" data-name="Rectangle 3868" transform="translate(16.357 13.219)"/>
        </g>
    </g>
</svg>
