<svg xmlns="http://www.w3.org/2000/svg" id="Group_3829" width="40" height="40" data-name="Group 3829" viewBox="0 0 40 40">
    <defs>
        <style>
            .cls-2{fill:#fff}
        </style>
    </defs>
    <g id="Group_3132" data-name="Group 3132">
        <g id="Group_3131" data-name="Group 3131">
            <g id="Group_3064" data-name="Group 3064">
                <g id="Group_3063" data-name="Group 3063">
                    <path id="Path_733" d="M14.206 9.577l-1.7-3.39a.564.564 0 0 0-.756-.254.565.565 0 0 0-.253.758l1.694 3.39a.565.565 0 0 0 1.011-.506z" class="cls-2" data-name="Path 733"/>
                </g>
            </g>
            <g id="Group_3068" data-name="Group 3068">
                <g id="Group_3067" data-name="Group 3067">
                    <path id="Path_735" d="M18.726 9.577l-1.695-3.39a.564.564 0 0 0-.756-.254.565.565 0 0 0-.254.758l1.694 3.39a.566.566 0 0 0 1.012-.506z" class="cls-2" data-name="Path 735"/>
                </g>
            </g>
            <g id="Group_3072" data-name="Group 3072">
                <g id="Group_3071" data-name="Group 3071">
                    <path id="Path_737" d="M23.242 9.577l-1.694-3.39a.565.565 0 0 0-1.012.5l1.694 3.39a.566.566 0 0 0 1.012-.505z" class="cls-2" data-name="Path 737"/>
                </g>
            </g>
            <g id="Group_3076" data-name="Group 3076">
                <g id="Group_3075" data-name="Group 3075">
                    <path id="Path_739" d="M27.765 9.577l-1.694-3.39a.564.564 0 0 0-.758-.253.565.565 0 0 0-.254.757l1.695 3.39a.565.565 0 0 0 1.011-.506z" class="cls-2" data-name="Path 739"/>
                </g>
            </g>
            <g id="Group_3831" data-name="Group 3831">
                <g id="Group_3080" data-name="Group 3080">
                    <g id="Group_3079" data-name="Group 3079">
                        <path id="Path_741" d="M7.427 17.079a.565.565 0 0 0-.758-.253L3.278 18.52a.566.566 0 0 0-.253.758.565.565 0 0 0 .759.253l3.389-1.695a.564.564 0 0 0 .254-.757z" class="cls-2" data-name="Path 741"/>
                    </g>
                </g>
                <g id="Group_3082" data-name="Group 3082">
                    <g id="Group_3081" data-name="Group 3081">
                        <path id="Path_742" d="M7.427 21.16a.567.567 0 0 0-.759-.253L3.278 22.6a.565.565 0 0 0-.254.757.567.567 0 0 0 .759.253l3.389-1.694a.566.566 0 0 0 .255-.756z" class="cls-2" data-name="Path 742"/>
                    </g>
                </g>
                <g id="Group_3086" data-name="Group 3086">
                    <g id="Group_3085" data-name="Group 3085">
                        <path id="Path_744" d="M7.427 25.419a.568.568 0 0 0-.759-.253l-3.39 1.695a.566.566 0 0 0-.253.758.567.567 0 0 0 .759.253l3.389-1.694a.566.566 0 0 0 .254-.759z" class="cls-2" data-name="Path 744"/>
                    </g>
                </g>
                <g id="Group_3090" data-name="Group 3090">
                    <g id="Group_3089" data-name="Group 3089">
                        <path id="Path_746" d="M7.427 29.633a.566.566 0 0 0-.758-.253l-3.39 1.694a.566.566 0 0 0-.253.758.567.567 0 0 0 .759.253l3.389-1.695a.567.567 0 0 0 .253-.757z" class="cls-2" data-name="Path 746"/>
                    </g>
                </g>
            </g>
            <g id="Group_3832" data-name="Group 3832">
                <g id="Group_3080-2" data-name="Group 3080">
                    <g id="Group_3079-2" data-name="Group 3079">
                        <path id="Path_741-2" d="M36.975 17.079a.565.565 0 0 0-.758-.253l-3.39 1.694a.565.565 0 0 0-.253.758.564.564 0 0 0 .758.253l3.39-1.695a.564.564 0 0 0 .253-.757z" class="cls-2" data-name="Path 741"/>
                    </g>
                </g>
                <g id="Group_3082-2" data-name="Group 3082">
                    <g id="Group_3081-2" data-name="Group 3081">
                        <path id="Path_742-2" d="M36.975 21.16a.566.566 0 0 0-.758-.253l-3.39 1.693a.565.565 0 0 0-.254.757.566.566 0 0 0 .758.253l3.39-1.694a.566.566 0 0 0 .254-.756z" class="cls-2" data-name="Path 742"/>
                    </g>
                </g>
                <g id="Group_3086-2" data-name="Group 3086">
                    <g id="Group_3085-2" data-name="Group 3085">
                        <path id="Path_744-2" d="M36.975 25.419a.567.567 0 0 0-.758-.253l-3.39 1.695a.565.565 0 0 0-.253.758.566.566 0 0 0 .758.253l3.39-1.694a.566.566 0 0 0 .253-.759z" class="cls-2" data-name="Path 744"/>
                    </g>
                </g>
                <g id="Group_3090-2" data-name="Group 3090">
                    <g id="Group_3089-2" data-name="Group 3089">
                        <path id="Path_746-2" d="M36.975 29.633a.566.566 0 0 0-.758-.253l-3.39 1.694a.565.565 0 0 0-.253.758.566.566 0 0 0 .758.253l3.39-1.695a.566.566 0 0 0 .253-.757z" class="cls-2" data-name="Path 746"/>
                    </g>
                </g>
            </g>
            <g id="Group_3110" data-name="Group 3110">
                <g id="Group_3109" data-name="Group 3109">
                    <path id="Path_756" d="M36.3 13.22h-1.13V4.745a1.7 1.7 0 0 0-1.693-1.694H6.357a1.694 1.694 0 0 0-1.694 1.694v8.474h-1.13a.565.565 0 1 0 0 1.13h3.39a.565.565 0 1 0 0-1.13h-1.13V8.7h1.694v1.129a.565.565 0 0 0 1.13 0V6.44a.565.565 0 1 0-1.13 0v1.13h-1.7V4.745a.565.565 0 0 1 .565-.565h27.12a.565.565 0 0 1 .565.565V7.57h-1.691V6.345a.565.565 0 0 0-1.13 0v3.39a.565.565 0 0 0 1.13 0V8.7h1.695v4.519h-1.13a.565.565 0 0 0 0 1.13H36.3a.565.565 0 1 0 0-1.13z" class="cls-2" data-name="Path 756"/>
                </g>
            </g>
            <g id="Group_3112" data-name="Group 3112">
                <g id="Group_3111" data-name="Group 3111">
                    <path id="Path_757" d="M6.921 34.124h-3.39a.565.565 0 0 0 0 1.13h1.13v1.13a.565.565 0 1 0 1.13 0v-1.13h1.13a.565.565 0 0 0 0-1.13z" class="cls-2" data-name="Path 757"/>
                </g>
            </g>
            <g id="Group_3114" data-name="Group 3114">
                <g id="Group_3113" data-name="Group 3113">
                    <path id="Path_758" d="M36.3 34.124h-3.39a.565.565 0 0 0 0 1.13h1.13v1.13a.565.565 0 1 0 1.13 0v-1.13h1.13a.565.565 0 0 0 0-1.13z" class="cls-2" data-name="Path 758"/>
                </g>
            </g>
            <g id="Group_3118" data-name="Group 3118">
                <g id="Group_3117" data-name="Group 3117">
                    <path id="Path_760" d="M29.509 25.653l-1.927-1.54a.513.513 0 0 1-.156-.215l-.743-3.458a1.532 1.532 0 0 0-1.491-1.2H14.627a1.516 1.516 0 0 0-1.492 1.195l-.763 3.43a.52.52 0 0 1-.179.286l-1.882 1.5a1.521 1.521 0 0 0-.569 1.19v5.1a1.521 1.521 0 0 0 .509 1.129V35a1.017 1.017 0 0 0 1.017 1.017H13.3A1.017 1.017 0 0 0 14.319 35v-1.526h11.189V35a1.017 1.017 0 0 0 1.017 1.017h2.034A1.017 1.017 0 0 0 29.576 35v-1.923a1.517 1.517 0 0 0 .509-1.129v-5.1a1.52 1.52 0 0 0-.576-1.195zm-10.984-5l.271-.4h6.4a.509.509 0 0 1 .5.4l.678 3.159h-7.432a1.825 1.825 0 0 0-.317-2.14.81.81 0 0 1-.1-1.017zm-2.165 0l.271-.4h.962a1.826 1.826 0 0 0 .318 2.139.81.81 0 0 1 .1 1.017l-.271.4h-.964a1.825 1.825 0 0 0-.316-2.139.814.814 0 0 1-.1-1.015zm-2.227 0a.506.506 0 0 1 .494-.4h.8a1.826 1.826 0 0 0 .318 2.14.809.809 0 0 1 .1 1.017l-.271.4h-2.143zM13.3 35h-2.03v-1.526h2.03zm15.255 0h-2.03v-1.526h2.034zm.509-3.051a.509.509 0 0 1-.509.509H11.27a.508.508 0 0 1-.508-.508v-.51h18.306zm0-1.525H10.762v-3.58a.5.5 0 0 1 .191-.4l1.881-1.505a1.56 1.56 0 0 0 .117-.113h13.917c.028.025.051.052.083.077l1.926 1.54a.509.509 0 0 1 .191.4v3.58z" class="cls-2" data-name="Path 760"/>
                </g>
            </g>
            <g id="Group_3120" data-name="Group 3120">
                <g id="Group_3119" data-name="Group 3119">
                    <path id="Path_761" d="M13.868 25.954a1.978 1.978 0 1 0 1.977 1.978 1.977 1.977 0 0 0-1.977-1.978zm0 2.824a.847.847 0 1 1 .847-.847.847.847 0 0 1-.847.846z" class="cls-2" data-name="Path 761"/>
                </g>
            </g>
            <g id="Group_3122" data-name="Group 3122">
                <g id="Group_3121" data-name="Group 3121">
                    <path id="Path_762" d="M25.732 25.954a1.978 1.978 0 1 0 1.978 1.978 1.977 1.977 0 0 0-1.978-1.978zm0 2.824a.847.847 0 1 1 .848-.847.848.848 0 0 1-.848.846z" class="cls-2" data-name="Path 762"/>
                </g>
            </g>
            <g id="Group_3130" data-name="Group 3130">
                <g id="Group_3129" data-name="Group 3129">
                    <path id="Path_766" d="M15.289 14.68l-.889-2.235a.566.566 0 0 0-1.05 0l-.894 2.235a1.526 1.526 0 1 0 2.838 0zm-.965.973a.634.634 0 0 1-1.043-.688l.591-1.48.592 1.48a.634.634 0 0 1-.148.688z" class="cls-2" data-name="Path 766"/>
                </g>
            </g>
            <g id="Group_3130-2" data-name="Group 3130">
                <g id="Group_3129-2" data-name="Group 3129">
                    <path id="Path_766-2" d="M21.333 14.68l-.9-2.235a.565.565 0 0 0-1.049 0L18.5 14.68a1.526 1.526 0 1 0 2.838 0zm-.966.973a.633.633 0 0 1-1.042-.688l.591-1.48.591 1.48a.636.636 0 0 1-.147.688z" class="cls-2" data-name="Path 766"/>
                </g>
            </g>
            <g id="Group_3130-3" data-name="Group 3130">
                <g id="Group_3129-3" data-name="Group 3129">
                    <path id="Path_766-3" d="M27.151 14.68l-.894-2.235a.565.565 0 0 0-1.049 0l-.894 2.235a1.525 1.525 0 1 0 2.837 0zm-.965.973a.634.634 0 0 1-1.043-.688l.592-1.48.591 1.48a.636.636 0 0 1-.147.688z" class="cls-2" data-name="Path 766"/>
                </g>
            </g>
        </g>
    </g>
</svg>
