<svg xmlns="http://www.w3.org/2000/svg" id="Group_4035" width="40" height="40" data-name="Group 4035" viewBox="0 0 40 40">
    <defs>
        <style>
            .cls-3{fill:none}.cls-2{fill:#fff}.cls-3{stroke:#fff;stroke-linecap:round}
        </style>
    </defs>
    <path id="Rectangle_3924" fill="none" d="M0 0H40V40H0z" data-name="Rectangle 3924"/>
    <g id="Group_4035-2" data-name="Group 4035" transform="translate(1.998 1.998)">
        <path id="Path_3770" d="M23.82 35.173A16.555 16.555 0 0 1 3.063 16.5a16.574 16.574 0 0 1 8.091-11.6l-.749 2.015 1.735-.8 1.105-2.978-2.978-1.108-1.735.8 2.168.801a17.858 17.858 0 0 0 5.745 33.225 18.029 18.029 0 0 0 2.971.248 17.65 17.65 0 0 0 4.757-.653.663.663 0 0 0-.357-1.276z" class="cls-2" data-name="Path 3770" transform="translate(-1.507 -1.338)"/>
        <path id="Path_3771" d="M18.838 1.755a17.739 17.739 0 0 0-6.051.025.662.662 0 1 0 .231 1.3 16.539 16.539 0 0 1 12.148 29.996l.607-2.052-1.675.912-.9 3.047 3.047.9 1.675-.912-2.229-.657a17.853 17.853 0 0 0-6.853-32.559z" class="cls-2" data-name="Path 3771" transform="translate(1.984 -1.507)"/>
    </g>
    <g id="Group_4036" data-name="Group 4036" transform="translate(7.789 15.044)">
        <g id="surface1">
            <path id="Path_789" d="M5.877 14.171v3.264a1.525 1.525 0 0 0 .964 1.422l1.305.525a.411.411 0 0 0 .15.028h.144a2.409 2.409 0 0 0 4.547 0h10.767a2.409 2.409 0 0 0 4.547 0h1.353a.4.4 0 0 0 .4-.4v-2.397a1.841 1.841 0 0 0-.925-1.593 9.515 9.515 0 0 0-4.608-1.248l-1.382-.754a13.67 13.67 0 0 0-6.539-1.667h-.474a13.558 13.558 0 0 0-5.614 1.209 14 14 0 0 0-1.552.822l-2.738.391a.4.4 0 0 0-.345.398z" class="cls-3" data-name="Path 789" transform="translate(-5.877 -11.351)"/>
        </g>
        <circle id="Ellipse_1" cx="2.029" cy="2.029" r="2.029" class="cls-3" data-name="Ellipse 1" transform="translate(2.892 5.585)"/>
        <circle id="Ellipse_2" cx="2.029" cy="2.029" r="2.029" class="cls-3" data-name="Ellipse 2" transform="translate(18.178 5.585)"/>
    </g>
    <g id="surface1-2" data-name="surface1" transform="translate(11.45 -4.007)">
        <path id="Path_768" d="M34.46 10.5a1.227 1.227 0 0 1 .03-2.454 1.243 1.243 0 0 1 1.217 1.244 1.224 1.224 0 0 1-1.243 1.21zm.011-.807a.419.419 0 0 0 .416-.412.4.4 0 0 0-.4-.412h-.013a.412.412 0 0 0-.42.4.426.426 0 0 0 .416.421z" class="cls-2" data-name="Path 768" transform="translate(-23.459 22.026)"/>
        <g id="Group_4017" data-name="Group 4017" transform="translate(-4.46 15.472)">
            <path id="Path_769" d="M7.367 7.665a1.915 1.915 0 0 1 0 .355c-.039.21-.188.363-.392.319a.548.548 0 0 1-.375-.3 1.621 1.621 0 0 1 0-.76.544.544 0 0 1 .375-.3.349.349 0 0 1 .39.3V7.3a2 2 0 0 1 .002.365z" class="cls-2" data-name="Path 769" transform="translate(-5.127 -4.678)"/>
            <path id="Path_770" d="M7.37 4.43a2 2 0 0 1 0 .326.384.384 0 0 1-.384.349.361.361 0 0 1-.4-.316 3.125 3.125 0 0 1-.017-.689.372.372 0 0 1 .368-.375.377.377 0 0 1 .049 0 .383.383 0 0 1 .39.376v.026c.007.1 0 .2 0 .3z" class="cls-2" data-name="Path 770" transform="translate(-5.128 -3.729)"/>
            <path id="Path_771" d="M8.476 6.56a2.829 2.829 0 0 1-.355-.018.361.361 0 0 1-.321-.395.355.355 0 0 1 .326-.383h.01a4.178 4.178 0 0 1 .652-.006.366.366 0 0 1 .384.347.48.48 0 0 1 0 .055.372.372 0 0 1-.351.392.227.227 0 0 1-.044 0c-.1.006-.2 0-.3 0z" class="cls-2" data-name="Path 771" transform="translate(-5.49 -4.318)"/>
            <path id="Path_772" d="M5.237 6.562a2.68 2.68 0 0 1-.384-.023.394.394 0 0 1 .042-.778 5 5 0 0 1 .652 0 .4.4 0 0 1 .017.788 2.79 2.79 0 0 1-.327 0z" class="cls-2" data-name="Path 772" transform="translate(-4.54 -4.319)"/>
        </g>
        <path id="Path_773" d="M34.1 5.278a.436.436 0 1 1-.441-.431.449.449 0 0 1 .441.431z" class="cls-2" data-name="Path 773" transform="translate(-11.871 15.541)"/>
        <path id="Path_773-2" d="M34.1 5.278a.436.436 0 1 1-.441-.431.449.449 0 0 1 .441.431z" class="cls-2" data-name="Path 773" transform="translate(-18.287 9.958)"/>
        <path id="Path_773-3" d="M34.865 5.655a.817.817 0 1 1-.826-.808h.005a.841.841 0 0 1 .821.808z" class="cls-2" data-name="Path 773" transform="translate(-24.667 10.744)"/>
        <path id="Path_773-4" d="M34.865 5.655a.817.817 0 1 1-.826-.808h.005a.841.841 0 0 1 .821.808z" class="cls-2" data-name="Path 773" transform="translate(-30.625 11.161)"/>
        <path id="Path_773-5" d="M34.1 5.278a.436.436 0 1 1-.441-.431.449.449 0 0 1 .441.431z" class="cls-2" data-name="Path 773" transform="translate(-15.954 14.833)"/>
        <path id="Path_773-6" d="M34.1 5.278a.436.436 0 1 1-.441-.431.449.449 0 0 1 .441.431z" class="cls-2" data-name="Path 773" transform="translate(-13.621 11)"/>
        <path id="Path_774" d="M8.827 14.46a.43.43 0 1 1-.439-.426.438.438 0 0 1 .439.426z" class="cls-2" data-name="Path 774" transform="translate(-11.292 14.736)"/>
    </g>
</svg>
