<svg xmlns="http://www.w3.org/2000/svg" id="Group_3910" width="25" height="25" viewBox="0 0 25 25">
    <defs>
        <linearGradient id="linear-gradient" x2="1" y1=".5" y2=".5" gradientUnits="objectBoundingBox">
            <stop offset="0" stop-color="#1c7fab"/>
            <stop offset="1" stop-color="#1caba2"/>
        </linearGradient>
        <style>
            .cls-3{fill:#fff}
        </style>
    </defs>
    <path id="Rectangle_3887" fill="#fff" d="M0 0H25V25H0z" opacity="0.001"/>
    <g id="Group_3909">
        <rect id="Rectangle_3888" width="21.667" height="1.667" fill="url(#linear-gradient)" rx=".833" transform="translate(1.667 5.758)"/>
        <g id="Group_3908">
            <path id="Path_3741" d="M22.5 5.342h-.668V3.6a.609.609 0 0 0-.608-.608h-1.966a.609.609 0 0 0-.609.608v1.742H6.688V3.6a.609.609 0 0 0-.609-.608H4.113a.609.609 0 0 0-.608.608v1.742H2.5a1.251 1.251 0 0 0-1.25 1.25v1.142a1.251 1.251 0 0 0 1.25 1.25h.493a1.253 1.253 0 0 0-.076.417v11.357a1.25 1.25 0 0 0 1.25 1.25h16.666a1.25 1.25 0 0 0 1.25-1.25V9.4a1.229 1.229 0 0 0-.077-.417h.494a1.251 1.251 0 0 0 1.25-1.25V6.592a1.251 1.251 0 0 0-1.25-1.25zm-1.25 15.416a.417.417 0 0 1-.417.417H4.167a.417.417 0 0 1-.417-.417V9.4a.418.418 0 0 1 .417-.417h16.666a.418.418 0 0 1 .417.417zm1.667-13.024a.417.417 0 0 1-.417.417h-20a.417.417 0 0 1-.417-.417V6.592a.417.417 0 0 1 .417-.417h20a.417.417 0 0 1 .417.417z"/>
            <path id="Path_3742" d="M6.365 12.882h.464v-.947h.9v-.448h-.9v-.94h-.464v.94h-.9v.448h.9z"/>
            <path id="Rectangle_3889" d="M0 0H2.271V0.448H0z" transform="translate(17.268 11.486)"/>
            <rect id="Rectangle_3890" width="1.667" height="1.667" class="cls-3" rx=".23" transform="translate(4.263 3.75)"/>
            <rect id="Rectangle_3891" width="1.667" height="1.667" class="cls-3" rx=".23" transform="translate(19.407 3.75)"/>
        </g>
    </g>
</svg>
