<svg xmlns="http://www.w3.org/2000/svg" xmlns:xlink="http://www.w3.org/1999/xlink" width="25" height="25" viewBox="0 0 25 25">
    <defs>
        <linearGradient id="lap74dwd7a" x2="1" y1=".5" y2=".5" gradientUnits="objectBoundingBox">
            <stop offset="0" stop-color="#1c7fab"/>
            <stop offset="1" stop-color="#1caba2"/>
        </linearGradient>
        <linearGradient id="4rxtvxjd3b" x1="0" x2="1" y1=".5" y2=".5" xlink:href="#lap74dwd7a"/>
        <linearGradient id="sp24y4jw6c" x1="0" x2="1" y1=".5" y2=".5" xlink:href="#lap74dwd7a"/>
    </defs>
    <g>
        <path d="M20.485 5.551l-.176-.178.611-.608a.49.49 0 0 0 0-.689 11.9 11.9 0 0 0-8.4-3.49h-.062a11.874 11.874 0 0 0-8.378 3.49.491.491 0 0 0 0 .69l.611.607a11.122 11.122 0 0 0 7.637 19.04h.177a11.122 11.122 0 0 0 7.98-18.863zm-7.979 17.881h-.013A10.142 10.142 0 0 1 5.377 6.064l1.488 1.487a.5.5 0 0 0 .691 0A6.96 6.96 0 0 1 12.483 5.5h.046a6.951 6.951 0 0 1 4.917 2.054.51.51 0 0 0 .693 0l1.484-1.487a10.142 10.142 0 0 1-7.117 17.368zm5.276-16.9a7.869 7.869 0 0 0-5.267-2.005h-.047a7.866 7.866 0 0 0-5.247 2l-2.1-2.1a10.769 10.769 0 0 1 7.336-2.868h.074a10.8 10.8 0 0 1 7.346 2.868z"/>
        <path d="M17.166 13.283a4.667 4.667 0 1 0-4.666 4.668 4.672 4.672 0 0 0 4.666-4.668zm-1.025 0A3.641 3.641 0 1 1 12.5 9.642a3.645 3.645 0 0 1 3.641 3.641z"/>
        <path d="M10.438 13.283a2.062 2.062 0 1 0 2.062-2.062 2.064 2.064 0 0 0-2.062 2.062zm3.151 0a1.089 1.089 0 1 1-1.089-1.088 1.09 1.09 0 0 1 1.089 1.088z"/>
        <path d="M4.715 13.284v-.094h-.973v.093a8.752 8.752 0 0 0 2.565 6.193l.065.065.689-.687-.066-.066a7.782 7.782 0 0 1-2.28-5.504z"/>
        <path d="M0 0H0.973V0.973H0z" transform="translate(12.013 10.039)"/>
        <path d="M0 0H0.973V0.973H0z" transform="rotate(-45 18.614 -6.232)"/>
        <path d="M0 0H0.973V0.973H0z" transform="translate(9.256 12.797)"/>
        <path d="M0 0H0.973V0.973H0z" transform="rotate(-45 23.317 -4.284)"/>
        <path d="M0 0H0.973V0.973H0z" transform="translate(12.013 15.554)"/>
        <path d="M0 0H0.973V0.973H0z" transform="rotate(-45 25.267 -8.992)"/>
        <path d="M0 0H0.973V0.973H0z" transform="translate(14.77 12.797)"/>
        <path d="M0 0H0.973V0.973H0z" transform="rotate(-45 20.564 -10.939)"/>
    </g>
    <path fill="url(#lap74dwd7a)" d="M11.62 3.042a.88.88 0 1 0 .88-.881.882.882 0 0 0-.88.881z"/>
    <path fill="url(#4rxtvxjd3b)" d="M7.773 3.343a.881.881 0 1 0 .881.881.882.882 0 0 0-.881-.881z"/>
    <path fill="url(#sp24y4jw6c)" d="M17.226 5.1a.881.881 0 1 0-.88-.88.881.881 0 0 0 .88.88z"/>
</svg>
