<svg xmlns="http://www.w3.org/2000/svg" width="30" height="30" viewBox="0 0 30 30">
    <defs>
        <linearGradient id="linear-gradient" x2="1" y1=".5" y2=".5" gradientUnits="objectBoundingBox">
            <stop offset="0" stop-color="#1c7fab"/>
            <stop offset="1" stop-color="#1caba2"/>
        </linearGradient>
        <style>
            .cls-2{stroke:#000;stroke-miterlimit:10;stroke-width:.25px}
        </style>
    </defs>
    <g id="Group_3865" data-name="Group 3865" transform="translate(0 -.012)">
        <path id="Rectangle_3873" fill="#fff" d="M0 0H30V30H0z" data-name="Rectangle 3873" transform="translate(0 .012)"/>
        <g id="Group_3872" data-name="Group 3872">
            <g id="Group_3869" data-name="Group 3869">
                <path id="Path_3719" d="M10.656 6.476a4.268 4.268 0 1 0 4.267 4.268 4.273 4.273 0 0 0-4.267-4.268zm0 7.851a3.583 3.583 0 1 1 3.583-3.583 3.587 3.587 0 0 1-3.583 3.583z" class="cls-2" data-name="Path 3719"/>
                <path id="Path_3720" d="M19.551 8.821l-1.565-.34-.039-.12a7.582 7.582 0 0 0-.447-1.088l-.057-.112.867-1.347a.345.345 0 0 0-.046-.427l-2.251-2.248a.345.345 0 0 0-.427-.045l-1.347.866-.112-.06a7.7 7.7 0 0 0-1.089-.451l-.119-.039-.34-1.565a.344.344 0 0 0-.335-.269H9.067a.344.344 0 0 0-.335.269l-.339 1.568-.12.039a7.718 7.718 0 0 0-1.088.448l-.112.057-1.348-.863a.346.346 0 0 0-.427.045L3.051 5.387a.343.343 0 0 0-.045.427l.866 1.347-.057.112a7.7 7.7 0 0 0-.451 1.088l-.039.12-1.565.34a.343.343 0 0 0-.269.334v3.178a.343.343 0 0 0 .269.334l1.565.34.039.119a7.566 7.566 0 0 0 .451 1.089l.057.112-.867 1.347a.345.345 0 0 0 .046.427L5.3 18.348a.344.344 0 0 0 .427.046l1.348-.866.112.056a7.663 7.663 0 0 0 1.088.452l.12.038.339 1.566a.344.344 0 0 0 .335.269h3.177a.344.344 0 0 0 .335-.269l.34-1.566.12-.038a7.752 7.752 0 0 0 1.088-.452l.112-.056 1.347.866a.342.342 0 0 0 .427-.046L18.26 16.1a.345.345 0 0 0 .046-.427l-.867-1.347.057-.112a7.454 7.454 0 0 0 .451-1.089l.039-.119 1.565-.34a.344.344 0 0 0 .27-.334V9.155a.345.345 0 0 0-.27-.334zm-.414 3.236l-1.5.325a.341.341 0 0 0-.256.242 7.013 7.013 0 0 1-.641 1.547.341.341 0 0 0 .009.354l.828 1.287-1.857 1.857-1.288-.827a.342.342 0 0 0-.353-.011 6.925 6.925 0 0 1-1.547.642.34.34 0 0 0-.242.257l-.325 1.5H9.342l-.324-1.5a.342.342 0 0 0-.243-.257 6.905 6.905 0 0 1-1.547-.642.342.342 0 0 0-.353.011l-1.287.827-1.858-1.857.828-1.287a.344.344 0 0 0 .01-.354 6.969 6.969 0 0 1-.641-1.547.342.342 0 0 0-.257-.242l-1.5-.325V9.431l1.5-.325a.342.342 0 0 0 .257-.243 6.98 6.98 0 0 1 .641-1.547.342.342 0 0 0-.01-.353L3.73 5.676l1.857-1.858 1.288.828a.339.339 0 0 0 .353.01 6.9 6.9 0 0 1 1.548-.641.344.344 0 0 0 .242-.257l.324-1.495h2.627l.325 1.495a.342.342 0 0 0 .242.257 6.913 6.913 0 0 1 1.547.641.344.344 0 0 0 .353-.01l1.288-.828 1.857 1.858-.828 1.287a.342.342 0 0 0-.01.353 6.96 6.96 0 0 1 .642 1.547.34.34 0 0 0 .256.243l1.5.325z" class="cls-2" data-name="Path 3720"/>
            </g>
            <g id="Group_3870" data-name="Group 3870">
                <path id="Path_3721" d="M22.39 19.452a2.849 2.849 0 1 0 2.849 2.85 2.853 2.853 0 0 0-2.849-2.85zm0 5.242a2.392 2.392 0 1 1 2.392-2.394 2.4 2.4 0 0 1-2.392 2.394z" class="cls-2" data-name="Path 3721"/>
                <path id="Path_3722" d="M28.329 21.018l-1.045-.227-.026-.08a5 5 0 0 0-.3-.726l-.038-.075.579-.9a.231.231 0 0 0-.031-.285l-1.5-1.5a.231.231 0 0 0-.286-.03l-.9.579-.075-.039a5.1 5.1 0 0 0-.727-.3l-.079-.026-.227-1.045a.231.231 0 0 0-.224-.18h-2.121a.231.231 0 0 0-.224.18l-.226 1.045-.08.026a5.177 5.177 0 0 0-.727.3l-.072.037-.9-.578a.23.23 0 0 0-.285.03l-1.5 1.5a.23.23 0 0 0-.03.285l.578.9-.038.075a5 5 0 0 0-.3.726l-.026.08-1.045.227a.229.229 0 0 0-.18.223v2.122a.231.231 0 0 0 .18.223l1.045.227.026.079a4.967 4.967 0 0 0 .3.727l.038.075-.578.9a.231.231 0 0 0 .03.286l1.5 1.5a.23.23 0 0 0 .285.031l.9-.579.074.038a5.087 5.087 0 0 0 .727.3l.08.026.226 1.045a.231.231 0 0 0 .224.18h2.119a.23.23 0 0 0 .224-.179L23.9 27.2l.08-.026a5.048 5.048 0 0 0 .726-.3l.075-.038.9.579a.23.23 0 0 0 .286-.031l1.5-1.5a.231.231 0 0 0 .031-.285l-.579-.9.038-.075a4.967 4.967 0 0 0 .3-.727l.026-.079 1.045-.227a.231.231 0 0 0 .18-.223v-2.127a.229.229 0 0 0-.179-.223zm-.277 2.161l-1 .216a.229.229 0 0 0-.171.162 4.652 4.652 0 0 1-.428 1.033.225.225 0 0 0 .006.236l.552.86-1.239 1.24-.86-.553a.23.23 0 0 0-.236-.007 4.667 4.667 0 0 1-1.033.429.229.229 0 0 0-.162.171l-.216 1h-1.752l-.217-1a.227.227 0 0 0-.162-.171 4.666 4.666 0 0 1-1.033-.429.23.23 0 0 0-.236.007l-.859.553-1.24-1.24.552-.86a.228.228 0 0 0 .007-.236 4.636 4.636 0 0 1-.428-1.033.23.23 0 0 0-.172-.162l-1-.216v-1.754l1-.217a.229.229 0 0 0 .172-.162 4.655 4.655 0 0 1 .428-1.033.228.228 0 0 0-.007-.236l-.552-.859 1.24-1.24.859.552a.228.228 0 0 0 .236.007 4.675 4.675 0 0 1 1.033-.428.229.229 0 0 0 .162-.172l.217-1h1.754l.216 1a.23.23 0 0 0 .162.172 4.655 4.655 0 0 1 1.033.428.228.228 0 0 0 .236-.007l.86-.552 1.239 1.24-.552.859a.228.228 0 0 0-.007.236 4.647 4.647 0 0 1 .429 1.033.227.227 0 0 0 .171.162l1 .217z" class="cls-2" data-name="Path 3722"/>
            </g>
            <g id="Group_3871" data-name="Group 3871">
                <path id="Path_3723" d="M24.925 3.42a.315.315 0 0 0-.5 0c-.144.214-3.533 5.24-3.533 7.232a3.783 3.783 0 0 0 7.566 0c-.001-1.992-3.389-7.018-3.533-7.232zm-.251 10.409a3.18 3.18 0 0 1-3.174-3.177c0-1.383 2.1-4.874 3.177-6.515 1.076 1.641 3.178 5.131 3.178 6.515a3.181 3.181 0 0 1-3.181 3.177z" class="cls-2" data-name="Path 3723"/>
            </g>
            <path id="Path_3724" fill="url(#linear-gradient)" d="M22.39 19.309a2.993 2.993 0 1 0 2.992 2.991 3 3 0 0 0-2.992-2.991z" data-name="Path 3724"/>
        </g>
    </g>
</svg>
