<svg xmlns="http://www.w3.org/2000/svg" id="Group_3789" width="30" height="30" data-name="Group 3789" viewBox="0 0 30 30">
    <defs>
        <linearGradient id="linear-gradient" x2="1" y1=".5" y2=".5" gradientUnits="objectBoundingBox">
            <stop offset="0" stop-color="#1c7fab"/>
            <stop offset="1" stop-color="#1caba2"/>
        </linearGradient>
    </defs>
    <path id="Rectangle_3802" fill="#fff" d="M0 0H30V30H0z" data-name="Rectangle 3802"/>
    <path id="Rectangle_3803" fill="url(#linear-gradient)" d="M0 0H5.706V11.731H0z" data-name="Rectangle 3803" transform="translate(3.001 13.531)"/>
    <g id="Group_3791" data-name="Group 3791">
        <path id="Path_3673" d="M26.255 16.646l-.116-.08.082-.114a1.62 1.62 0 0 0 .231-1.478 1.825 1.825 0 0 0-1.141-1.183 1.96 1.96 0 0 0-.585-.087h-1.49V10.1L25.6 7.747V3.258l-.511-.513c-.67-.673-1.336-1.345-2.006-2.009a.544.544 0 0 0-.191-.115L22.8.584l-.147.01c-.369.117-.4.43-.4.714V4.9h-3.33V.962l-.036-.055A.745.745 0 0 0 18.538.6L18.4.545l-2.851 2.864V7.69l2.4 2.424V11.7l-.122.014a1.94 1.94 0 0 0-.772.249l-.8.458c-.748.43-1.6.916-2.406 1.408a1.377 1.377 0 0 1-.692.217h-.125l-.015-.125c-.054-.471-.079-.527-.223-.7l-.067-.078h-8.8V12.2l-.376.021h-.1a.759.759 0 0 0-.324.066L3 12.343V26.93h.933v-.763h6.747l.056-.14a2.149 2.149 0 0 0 .1-.884c0-.08-.005-.159-.005-.236v-.133h1.104a4.685 4.685 0 0 0 .782-.054l.089-.015.054-.075a.946.946 0 0 0 .157-.618l-.005-.23.2.1a.784.784 0 0 1 .1.059c.22.153.446.3.673.446.265.172.5.326.735.49a1.2 1.2 0 0 0 .732.223h2.518v1.611a2.562 2.562 0 0 0 .1.8 2.629 2.629 0 0 0 2.5 1.914 2.575 2.575 0 0 0 2.515-1.8 3.122 3.122 0 0 0 .133-1.057V25.1l.31-.007a2.185 2.185 0 0 1 .271.014 1.683 1.683 0 0 0 1.455-.761 1.611 1.611 0 0 0 .27-1.455 2.535 2.535 0 0 0-.153-.358l-.067-.129.132-.059a1.776 1.776 0 0 0 1-1.108 1.68 1.68 0 0 0-.223-1.509l-.071-.112.108-.075A1.676 1.676 0 0 0 27 18.1a1.719 1.719 0 0 0-.745-1.454zm-16.4 8.615H3.934V14.078h5.922zm2.2-1.463h-1.2V14.09h1.2zm12.769-9.143a.823.823 0 0 1-.016 1.642h-2.956a.744.744 0 0 1-.758-.744.951.951 0 0 1 .243-.683.677.677 0 0 1 .49-.215c.997-.015 1.996-.013 2.994 0zM16.5 7.369V3.762l1.467-1.45v3.154l.027.05a.616.616 0 0 0 .59.355h4.057a.629.629 0 0 0 .489-.2l.064-.06v-.088c.037-.692.032-1.412.027-2.109V2.287l1.44 1.4v3.697l-2.41 2.325v4.01h-.141a3.2 3.2 0 0 0-.526.019 1.524 1.524 0 0 0-.542.2l-.1.059-.073-.1a13.679 13.679 0 0 0-1.654-1.7l-.291-.268V9.777zm1.977 7.747l-.078-.079-.044-.044-.054-.055a.867.867 0 0 0-.554-.319l-.12-.015-.078.093a7.925 7.925 0 0 0-.831 1.316 10.969 10.969 0 0 1-.563.955l-.077.113.066.119a.657.657 0 0 0 .279.264l.045.042.181.268.238-.235a6.663 6.663 0 0 0 .638-1.032l.039-.073c.047-.088.094-.175.142-.259l.257-.455v8.421h-2.64l-.383-.241c-.363-.232-.737-.472-1.1-.73a1.455 1.455 0 0 0-.674-.287l-.122-.014v-7.882l.219.007a1.691 1.691 0 0 0 .879-.258c.5-.3 1.009-.585 1.515-.874l.159-.091c.546-.313 1.094-.626 1.638-.944a.919.919 0 0 1 1.235.153l.517.517.074.074c.206.209.412.416.621.622a1.1 1.1 0 0 1 .309.624v.024l-.005.023a1.169 1.169 0 0 1-.29.6.945.945 0 0 1-1.04.048c-.135-.131-.269-.263-.403-.396zm3.781 10.142q0 .608-.007 1.215l-.005.538a1.635 1.635 0 0 1-1.233 1.42 1.967 1.967 0 0 1-.423.048A1.6 1.6 0 0 1 19.425 28a1.819 1.819 0 0 1-.515-1.288c.013-2.312.01-4.624.008-6.936v-3.212l.155.021a1.833 1.833 0 0 0 1.156-.182l.117-.064.129.222-.08.1a1.709 1.709 0 0 0-.744 1.416 1.735 1.735 0 0 0 .745 1.463l.106.078-.073.109a1.762 1.762 0 0 0-.294 1.089 1.841 1.841 0 0 0 .47 1.118l.084.092-.084.093a1.8 1.8 0 0 0 1.447 3h.2zm2.4-1.881c-.024.1-.04.162-.061.226a.754.754 0 0 1-.74.557H21.858a.766.766 0 0 1-.757-.787.788.788 0 0 1 .736-.855c.679-.011 1.359-.009 2.039 0a.763.763 0 0 1 .718.537c.024.075.041.151.058.229l.007.032zm.559-1.959a1.061 1.061 0 0 1-.533.153H21.952a.873.873 0 0 1-.766-.448.837.837 0 0 1 .041-.862.626.626 0 0 1 .525-.334c1.082-.04 2.144-.04 3.153 0a.828.828 0 0 1 .687.662.887.887 0 0 1-.385.829zm.2-2.521a3.121 3.121 0 0 1-.453.043h-3.402a.878.878 0 0 1-.9-.523.793.793 0 0 1 .043-.734.93.93 0 0 1 .76-.437H25.078a.883.883 0 0 1 .955.781.8.8 0 0 1-.624.873z" data-name="Path 3673"/>
    </g>
</svg>
