<svg xmlns="http://www.w3.org/2000/svg" width="62" height="46" viewBox="0 0 62 46">
    <defs>
        <style>
            .cls-1{fill:none}.cls-2{fill:#1caba2}.cls-2,.cls-3,.cls-4,.cls-5,.cls-6{fill-rule:evenodd}.cls-3{fill:#0e6567}.cls-4{fill:#106565}.cls-5{fill:#6c6c6c}.cls-6{fill:#6b6b6b}
        </style>
    </defs>
    <g id="Logo" transform="translate(-360.001 -7)">
        <path id="Rectangle_634" d="M0 0h62v46H0z" class="cls-1" data-name="Rectangle 634" transform="translate(360.001 7)"/>
        <g id="Group_758" data-name="Group 758" transform="translate(226.09 -151.824)">
            <path id="Path_618" d="M838.449 370.731h1.486a.186.186 0 0 1 .2.119c.611 1.183 1.217 2.365 1.83 3.542.408.765.781 1.539 1.2 2.3.4.744.773 1.5 1.16 2.241.015.031.017.077.06.077s.06-.045.075-.079c.569-1.1 1.144-2.2 1.713-3.291.393-.747.772-1.5 1.152-2.246.425-.838.854-1.685 1.3-2.523a.241.241 0 0 1 .243-.138h3.02c.118 0 .138.029.079.136-.371.7-.737 1.415-1.1 2.116-.426.813-.843 1.624-1.267 2.432-.3.583-.614 1.173-.916 1.756q-.575 1.117-1.159 2.234c-.5.957-1 1.912-1.49 2.874-.52.994-1.042 1.987-1.556 2.975-.024.039-.024.1-.076.106s-.078-.067-.1-.106c-.253-.483-.5-.961-.744-1.438-.515-.989-1.031-1.976-1.541-2.975-.407-.785-.814-1.577-1.23-2.372q-.705-1.363-1.418-2.733c-.345-.656-.676-1.325-1.017-1.984-.393-.761-.791-1.515-1.184-2.271-.1-.2-.209-.41-.316-.613-.062-.106-.034-.136.086-.136z" class="cls-2" data-name="Path 618" transform="translate(-657.715 -197.347)"/>
            <path id="Path_619" d="M590.718 373.878a1.229 1.229 0 0 0 .213.467q.855 1.683 1.731 3.362c.194.386.394.761.588 1.14.016.033.025.078.063.078.067 0 .069-.058.086-.1.289-.564.58-1.132.868-1.7.489-.928.96-1.849 1.442-2.774.561-1.076 1.088-2.163 1.669-3.231a2.3 2.3 0 0 0 .129-.264c.07-.2.215-.224.4-.223.958.01 1.91.007 2.859.007.181 0 .187 0 .1.161-.3.577-.593 1.152-.9 1.727-.419.8-.833 1.61-1.254 2.411-.43.821-.853 1.641-1.281 2.463-.433.845-.878 1.692-1.312 2.537-.5.967-1.006 1.923-1.5 2.9-.394.749-.776 1.5-1.169 2.243-.038.073-.058.185-.144.185s-.088-.112-.115-.183q-.706-1.351-1.4-2.708c-.491-.94-.982-1.874-1.479-2.816-.418-.8-.824-1.606-1.237-2.414-.081-.155-.165-.3-.243-.46-.026-.064-.058-.064-.115-.047a1.5 1.5 0 0 0-.222-.524c-.178-.375-.392-.735-.566-1.115a.63.63 0 0 0-.228-.3c.078-.107.012-.195-.036-.285-.443-.857-.89-1.717-1.336-2.572-.175-.353-.369-.7-.544-1.056-.075-.138-.07-.149.092-.149h2.972a.213.213 0 0 1 .228.143c.236.474.492.948.733 1.424.054.1.1.08.168.029-.049.186.065.326.139.471.208.395.407.786.601 1.173z" class="cls-2" data-name="Path 619" transform="translate(-422.786 -197.259)"/>
            <path id="Path_620" d="M209.213 382.315c0-1.2-.018-2.4 0-3.6a7.015 7.015 0 0 1 .519-2.561 7.221 7.221 0 0 1 1.907-2.714 7.375 7.375 0 0 1 3.057-1.631 6.783 6.783 0 0 1 1.509-.225c.551-.03 1.109-.007 1.663-.024.114 0 .162.024.162.151q-.015 1.319 0 2.636c0 .122-.049.151-.162.151-.518 0-1.031 0-1.55.01a4.2 4.2 0 0 0-2.192.719 4.327 4.327 0 0 0-1.808 2.531 3.44 3.44 0 0 0-.14.993v7.259c0 .153-.035.2-.2.2-.862-.007-1.722-.007-2.589 0-.14 0-.19-.038-.19-.189.014-1.234.014-2.473.014-3.706z" class="cls-2" data-name="Path 620" transform="translate(-70.453 -198.123)"/>
            <path id="Path_621" d="M542.86 433.754a.1.1 0 0 1 .13.041c.151.247.257.513.393.764.182.325.343.658.521.98.043.071-.03.1-.027.151-.282.45-.609.866-.917 1.292q-1.015 1.426-2.04 2.844c-.329.453-.656.915-.99 1.373a.4.4 0 0 1-.063.062c-.02.008-.04.019-.059-.01a6.093 6.093 0 0 0-.6-.633c-.41-.419-.835-.829-1.252-1.245-.047-.053-.135-.07-.143-.166.276-.3.55-.6.819-.9.594-.639 1.173-1.273 1.761-1.908q.965-1.036 1.932-2.085c.181-.183.358-.372.535-.56z" class="cls-3" data-name="Path 621" transform="translate(-377.938 -256.309)"/>
            <path id="Path_622" d="M651.345 263.64c-.12-.083-.151-.228-.212-.346-.2-.362-.382-.738-.582-1.1-.054-.112.069-.125.06-.2.531-.574 1.063-1.154 1.6-1.728.584-.637 1.167-1.276 1.755-1.905.375-.409.755-.815 1.132-1.223 0-.046 0-.09.041-.124.376-.36.706-.778 1.076-1.147a.282.282 0 0 1 .142-.086c.227-.247.451-.485.672-.729.661-.723 1.331-1.44 1.988-2.159a.27.27 0 0 1 .1-.076 2.154 2.154 0 0 1-.31.473q-1.121 1.557-2.241 3.109-1.523 2.119-3.058 4.239c-.69.981-1.4 1.947-2.1 2.927-.021.03-.042.048-.063.075z" class="cls-4" data-name="Path 622" transform="translate(-483.412 -87.02)"/>
            <path id="Path_623" d="M320.107 777.679a.912.912 0 0 1-1.134.888 17.593 17.593 0 0 1-2.422-.891c-.238-.1-.458-.222-.7-.328a.933.933 0 0 1-.435-1.247.915.915 0 0 1 1.234-.444c.384.179.761.352 1.145.51.557.234 1.128.425 1.7.615a.9.9 0 0 1 .612.897z" class="cls-5" data-name="Path 623" transform="translate(-169.754 -576.157)"/>
            <path id="Path_624" d="M244.892 213.8a.912.912 0 0 1-.432.864 18.806 18.806 0 0 0-2.253 1.75.943.943 0 1 1-1.35-1.316c.308-.285.635-.559.961-.827a25.8 25.8 0 0 1 1.548-1.141.964.964 0 0 1 1.153-.031.844.844 0 0 1 .373.701z" class="cls-5" data-name="Path 624" transform="translate(-99.8 -49.687)"/>
            <path id="Path_625" d="M607.963 199.083a.941.941 0 0 1-1.51.776 19.959 19.959 0 0 0-2.519-1.587.939.939 0 0 1 .87-1.664 20.646 20.646 0 0 1 2.794 1.762.871.871 0 0 1 .365.713z" class="cls-6" data-name="Path 625" transform="translate(-439.337 -34.321)"/>
            <path id="Path_626" d="M236.234 720.433a.925.925 0 0 1 .722.241 21.066 21.066 0 0 0 2.135 1.759 1.628 1.628 0 0 1 .405.333.936.936 0 0 1-.03 1.184.921.921 0 0 1-1.2.184 18.794 18.794 0 0 1-2.027-1.575 5.166 5.166 0 0 1-.662-.629.9.9 0 0 1-.087-.992.859.859 0 0 1 .744-.505z" class="cls-5" data-name="Path 626" transform="translate(-94.946 -524.568)"/>
            <path id="Path_627" d="M176.549 643.754a.951.951 0 0 1 .831.479 17.824 17.824 0 0 0 .986 1.56c.217.315.448.619.67.924a.913.913 0 0 1 .114.979.9.9 0 0 1-.81.537.85.85 0 0 1-.747-.312 19.969 19.969 0 0 1-1.857-2.787.944.944 0 0 1 .813-1.38z" class="cls-5" data-name="Path 627" transform="translate(-39.032 -452.819)"/>
            <path id="Path_628" d="M142.757 365.64a6.681 6.681 0 0 1 .252-1.071 22.6 22.6 0 0 1 .746-2.212.954.954 0 0 1 1.238-.562.93.93 0 0 1 .519 1.22 20.62 20.62 0 0 0-.907 2.858.945.945 0 0 1-1 .713.927.927 0 0 1-.818-.734c-.018-.07-.018-.139-.03-.212z" class="cls-5" data-name="Path 628" transform="translate(-8.277 -188.926)"/>
            <path id="Path_629" d="M516.624 166.717a.922.922 0 0 1-1.25.885 17.269 17.269 0 0 0-2.58-.693 1.563 1.563 0 0 1-.716-.247.965.965 0 0 1-.282-1.068.933.933 0 0 1 .848-.594 5.082 5.082 0 0 1 1.134.2 21.2 21.2 0 0 1 2.1.588 1.026 1.026 0 0 1 .684.559.714.714 0 0 1 .062.37z" class="cls-5" data-name="Path 629" transform="translate(-353.537 -4.842)"/>
            <path id="Path_630" d="M143.058 557.911a.931.931 0 0 1-.9-.691 23.188 23.188 0 0 1-.88-3 .94.94 0 0 1 1.7-.745 1.457 1.457 0 0 1 .177.533 17.665 17.665 0 0 0 .784 2.6.939.939 0 0 1-.881 1.303z" class="cls-5" data-name="Path 630" transform="translate(-6.87 -367.933)"/>
            <path id="Path_631" d="M182.737 279.036a1.035 1.035 0 0 1-.342.739 18.237 18.237 0 0 0-1.557 2.25.954.954 0 0 1-1.288.358.93.93 0 0 1-.339-1.3 20.453 20.453 0 0 1 1.83-2.629.94.94 0 0 1 1.33-.207.9.9 0 0 1 .366.789z" class="cls-5" data-name="Path 631" transform="translate(-42.262 -110.635)"/>
            <path id="Path_632" d="M417.663 159.843a10.585 10.585 0 0 1 1.081-.009.945.945 0 0 1 .947.935.921.921 0 0 1-.938.936c-.63-.021-1.244.011-1.864.038a10.962 10.962 0 0 0-1.112.109.943.943 0 0 1-.759-1.647 1.125 1.125 0 0 1 .665-.236 18.581 18.581 0 0 1 1.98-.126z" class="cls-6" data-name="Path 632" transform="translate(-262.731)"/>
            <path id="Path_633" d="M325.276 172.3a.913.913 0 0 1 .934.742.923.923 0 0 1-.662 1.078 20.27 20.27 0 0 0-2.8 1.051.927.927 0 0 1-1.286-.582.908.908 0 0 1 .477-1.11 19.591 19.591 0 0 1 2.823-1.079 1.113 1.113 0 0 1 .514-.1z" class="cls-6" data-name="Path 633" transform="translate(-175.456 -11.666)"/>
            <path id="Path_634" d="M135.846 457.309a21.656 21.656 0 0 0-.067 1.712c0 .446.028.893.042 1.345a.911.911 0 0 1-.794.946.941.941 0 0 1-1.035-.649 2.8 2.8 0 0 1-.065-.758c-.021-.545-.021-1.1-.011-1.647.02-.374.025-.743.081-1.117a.9.9 0 0 1 1.043-.81.886.886 0 0 1 .805.932z" class="cls-6" data-name="Path 634" transform="translate(0 -277.44)"/>
            <path id="Path_635" d="M411.582 806.237a18.867 18.867 0 0 1-2.737-.226.929.929 0 0 1-.742-1.074.941.941 0 0 1 1.058-.777 17.954 17.954 0 0 0 2.908.208.952.952 0 0 1 .955.6.928.928 0 0 1-.86 1.264c-.191-.006-.386.005-.582.005z" class="cls-6" data-name="Path 635" transform="translate(-256.553 -602.903)"/>
            <path id="Path_636" d="M685.418 257.284c-.292.253-.511.573-.8.844a3.042 3.042 0 0 1-.41.423c-.031.018-.035.064-.049.09-.005-.008-.005-.039-.018-.041-.374-.218-.546-.615-.812-.934-.413-.483-.814-.958-1.254-1.419a1.35 1.35 0 0 1-.457-.669.971.971 0 0 1 .391-1 .935.935 0 0 1 1.1.06 12.14 12.14 0 0 1 1.175 1.242c.374.435.726.887 1.065 1.358a.176.176 0 0 0 .069.046z" class="cls-6" data-name="Path 636" transform="translate(-512.476 -88.518)"/>
            <path id="Path_637" d="M373.2 384.156c-.089-.091-.157-.2-.248-.285-.441-.435-.867-.877-1.316-1.311a3.846 3.846 0 0 0-.486-.457 2.332 2.332 0 0 1-.189.179 15.292 15.292 0 0 1-1.378 1.3 4.205 4.205 0 0 1-2.438.851 4.031 4.031 0 0 1-1.894-.387c-.133-.056-.126-.088-.034-.172q2.787-2.789 5.573-5.572c.765-.773 1.53-1.547 2.3-2.307.089-.078.1-.138 0-.216-.154-.145-.3-.305-.451-.46a8.376 8.376 0 0 0-2.448-1.875 7.588 7.588 0 0 0-3.035-.723 7.24 7.24 0 0 0-2.262.307 7.152 7.152 0 0 0-3.387 2.169 6.844 6.844 0 0 0-1.244 1.969 7.441 7.441 0 0 0-.5 3.826 7.154 7.154 0 0 0 1.322 3.375 7.365 7.365 0 0 0 2.208 1.993 7.46 7.46 0 0 0 1.519.669 7.026 7.026 0 0 0 2.316.334 7.337 7.337 0 0 0 2.264-.4 7.25 7.25 0 0 0 2.376-1.371c.492-.41.92-.884 1.374-1.33.024-.031.068-.056.058-.106zm-10.017-2.4c-.151.15-.156.155-.232-.04a4.246 4.246 0 0 1-.275-2.582 4.421 4.421 0 0 1 2.3-3.027 4.115 4.115 0 0 1 2.01-.48 4.479 4.479 0 0 1 1.719.381c.177.082.177.082.039.218q-2.778 2.762-5.564 5.527z" class="cls-2" data-name="Path 637" transform="translate(-211.269 -199.205)"/>
        </g>
    </g>
</svg>
